/* XPM */
static char *coin_xpm[] = {
/* columns rows colors chars-per-pixel */
"64 64 4 1 ",
"  c None",
". c #A2A217",
"X c yellow",
"o c #505050",
/* pixels */
"                                                                ",
"                                                                ",
"                                                                ",
"                                                                ",
"                        ................                        ",
"                        ................                        ",
"                        ................                        ",
"                        ................                        ",
"                    ....XXXXXXXXXXXXXXXX....                    ",
"                    ....XXXXXXXXXXXXXXXX....                    ",
"                    ....XXXXXXXXXXXXXXXX....                    ",
"                    ....XXXXXXXXXXXXXXXX....                    ",
"                ....XXXXXXXXooooooooXXXXXXXX....                ",
"                ....XXXXXXXXooooooooXXXXXXXX....                ",
"                ....XXXXXXXXooooooooXXXXXXXX....                ",
"                ....XXXXXXXXooooooooXXXXXXXX....                ",
"            ....XXXXXXXXooooooooooooooooXXXXXXXX....            ",
"            ....XXXXXXXXooooooooooooooooXXXXXXXX....            ",
"            ....XXXXXXXXooooooooooooooooXXXXXXXX....            ",
"            ....XXXXXXXXooooooooooooooooXXXXXXXX....            ",
"        ....XXXXXXXXooooooooXXXXXXXXooooooooXXXXXXXX....        ",
"        ....XXXXXXXXooooooooXXXXXXXXooooooooXXXXXXXX....        ",
"        ....XXXXXXXXooooooooXXXXXXXXooooooooXXXXXXXX....        ",
"        ....XXXXXXXXooooooooXXXXXXXXooooooooXXXXXXXX....        ",
"        ....XXXXXXXXooooXXXXXXXXXXXXXXXXooooXXXXXXXX....        ",
"        ....XXXXXXXXooooXXXXXXXXXXXXXXXXooooXXXXXXXX....        ",
"        ....XXXXXXXXooooXXXXXXXXXXXXXXXXooooXXXXXXXX....        ",
"        ....XXXXXXXXooooXXXXXXXXXXXXXXXXooooXXXXXXXX....        ",
"        ....XXXXooooooooXXXXXXXXXXXXXXXXXXXXXXXXXXXX....        ",
"        ....XXXXooooooooXXXXXXXXXXXXXXXXXXXXXXXXXXXX....        ",
"        ....XXXXooooooooXXXXXXXXXXXXXXXXXXXXXXXXXXXX....        ",
"        ....XXXXooooooooXXXXXXXXXXXXXXXXXXXXXXXXXXXX....        ",
"        ....XXXXooooooooXXXXXXXXXXXXXXXXXXXXXXXXXXXX....        ",
"        ....XXXXooooooooXXXXXXXXXXXXXXXXXXXXXXXXXXXX....        ",
"        ....XXXXooooooooXXXXXXXXXXXXXXXXXXXXXXXXXXXX....        ",
"        ....XXXXooooooooXXXXXXXXXXXXXXXXXXXXXXXXXXXX....        ",
"        ....XXXXooooooooXXXXXXXXXXXXXXXXXXXXXXXXXXXX....        ",
"        ....XXXXooooooooXXXXXXXXXXXXXXXXXXXXXXXXXXXX....        ",
"        ....XXXXooooooooXXXXXXXXXXXXXXXXXXXXXXXXXXXX....        ",
"        ....XXXXooooooooXXXXXXXXXXXXXXXXXXXXXXXXXXXX....        ",
"        ....XXXXXXXXooooXXXXXXXXXXXXXXXXooooXXXXXXXX....        ",
"        ....XXXXXXXXooooXXXXXXXXXXXXXXXXooooXXXXXXXX....        ",
"        ....XXXXXXXXooooXXXXXXXXXXXXXXXXooooXXXXXXXX....        ",
"        ....XXXXXXXXooooXXXXXXXXXXXXXXXXooooXXXXXXXX....        ",
"            ....XXXXooooooooXXXXXXXXooooooooXXXX....            ",
"            ....XXXXooooooooXXXXXXXXooooooooXXXX....            ",
"            ....XXXXooooooooXXXXXXXXooooooooXXXX....            ",
"            ....XXXXooooooooXXXXXXXXooooooooXXXX....            ",
"                ....XXXXooooooooooooooooXXXX....                ",
"                ....XXXXooooooooooooooooXXXX....                ",
"                ....XXXXooooooooooooooooXXXX....                ",
"                ....XXXXooooooooooooooooXXXX....                ",
"                    ....XXXXXXXXXXXXXXXX....                    ",
"                    ....XXXXXXXXXXXXXXXX....                    ",
"                    ....XXXXXXXXXXXXXXXX....                    ",
"                    ....XXXXXXXXXXXXXXXX....                    ",
"                        ................                        ",
"                        ................                        ",
"                        ................                        ",
"                        ................                        ",
"                                                                ",
"                                                                ",
"                                                                ",
"                                                                "
};
