/* XPM */
static char *play_xpm[] = {
/* columns rows colors chars-per-pixel */
"64 64 4 1 ",
"  c None",
". c #000000",
"X c #ff0000",
"o c #ffffff",
/* pixels */
"                                                                ",
"                                                                ",
"                                                                ",
"                                                                ",
"                ................................                ",
"                ................................                ",
"                ................................                ",
"                ................................                ",
"            ....XXXXXXXXXXXXXXXXXXXXXXXXXXXXXXXX....            ",
"            ....XXXXXXXXXXXXXXXXXXXXXXXXXXXXXXXX....            ",
"            ....XXXXXXXXXXXXXXXXXXXXXXXXXXXXXXXX....            ",
"            ....XXXXXXXXXXXXXXXXXXXXXXXXXXXXXXXX....            ",
"        ....XXXXXXXXXXXX........XXXXXXXX....XXXXXXXX....        ",
"        ....XXXXXXXXXXXX........XXXXXXXX....XXXXXXXX....        ",
"        ....XXXXXXXXXXXX........XXXXXXXX....XXXXXXXX....        ",
"        ....XXXXXXXXXXXX........XXXXXXXX....XXXXXXXX....        ",
"    ....XXXXXXXXXXXXXXXXXXXXXXXXXXXXXXXXXXXX....XXXXXXXX....    ",
"    ....XXXXXXXXXXXXXXXXXXXXXXXXXXXXXXXXXXXX....XXXXXXXX....    ",
"    ....XXXXXXXXXXXXXXXXXXXXXXXXXXXXXXXXXXXX....XXXXXXXX....    ",
"    ....XXXXXXXXXXXXXXXXXXXXXXXXXXXXXXXXXXXX....XXXXXXXX....    ",
"    ....XXXXXXXXXXXXXXXXooooooooXXXXooooooooXXXXXXXXXXXX....    ",
"    ....XXXXXXXXXXXXXXXXooooooooXXXXooooooooXXXXXXXXXXXX....    ",
"    ....XXXXXXXXXXXXXXXXooooooooXXXXooooooooXXXXXXXXXXXX....    ",
"    ....XXXXXXXXXXXXXXXXooooooooXXXXooooooooXXXXXXXXXXXX....    ",
"    ....XXXXXXXXXXXXoooo........oooo........ooooXXXXXXXX....    ",
"    ....XXXXXXXXXXXXoooo........oooo........ooooXXXXXXXX....    ",
"    ....XXXXXXXXXXXXoooo........oooo........ooooXXXXXXXX....    ",
"    ....XXXXXXXXXXXXoooo........oooo........ooooXXXXXXXX....    ",
"    ....XXXXXXXXXXXXoooo........oooo........ooooXXXXXXXX....    ",
"    ....XXXXXXXXXXXXoooo........oooo........ooooXXXXXXXX....    ",
"    ....XXXXXXXXXXXXoooo........oooo........ooooXXXXXXXX....    ",
"    ....XXXXXXXXXXXXoooo........oooo........ooooXXXXXXXX....    ",
"    ....XXXXXXXXXXXXXXXXooooooooXXXXooooooooXXXXXXXXXXXX....    ",
"    ....XXXXXXXXXXXXXXXXooooooooXXXXooooooooXXXXXXXXXXXX....    ",
"    ....XXXXXXXXXXXXXXXXooooooooXXXXooooooooXXXXXXXXXXXX....    ",
"    ....XXXXXXXXXXXXXXXXooooooooXXXXooooooooXXXXXXXXXXXX....    ",
"    ....XXXXXXXXXXXXXXXXXXXXXXXXXXXXXXXXXXXXXXXXXXXXXXXX....    ",
"    ....XXXXXXXXXXXXXXXXXXXXXXXXXXXXXXXXXXXXXXXXXXXXXXXX....    ",
"    ....XXXXXXXXXXXXXXXXXXXXXXXXXXXXXXXXXXXXXXXXXXXXXXXX....    ",
"    ....XXXXXXXXXXXXXXXXXXXXXXXXXXXXXXXXXXXXXXXXXXXXXXXX....    ",
"    ....XXXXXXXXXXXX....XXXXXXXXXXXXXXXXXXXXXXXXXXXXXXXX....    ",
"    ....XXXXXXXXXXXX....XXXXXXXXXXXXXXXXXXXXXXXXXXXXXXXX....    ",
"    ....XXXXXXXXXXXX....XXXXXXXXXXXXXXXXXXXXXXXXXXXXXXXX....    ",
"    ....XXXXXXXXXXXX....XXXXXXXXXXXXXXXXXXXXXXXXXXXXXXXX....    ",
"    ....XXXXXXXXXXXX........XXXXXXXXXXXXXXXXXXXXXXXXXXXX....    ",
"    ....XXXXXXXXXXXX........XXXXXXXXXXXXXXXXXXXXXXXXXXXX....    ",
"    ....XXXXXXXXXXXX........XXXXXXXXXXXXXXXXXXXXXXXXXXXX....    ",
"    ....XXXXXXXXXXXX........XXXXXXXXXXXXXXXXXXXXXXXXXXXX....    ",
"        ....XXXXXXXXXXXX....................XXXXXXXX....        ",
"        ....XXXXXXXXXXXX....................XXXXXXXX....        ",
"        ....XXXXXXXXXXXX....................XXXXXXXX....        ",
"        ....XXXXXXXXXXXX....................XXXXXXXX....        ",
"            ....XXXXXXXXXXXXXXXXXXXXXXXXXXXXXXXX....            ",
"            ....XXXXXXXXXXXXXXXXXXXXXXXXXXXXXXXX....            ",
"            ....XXXXXXXXXXXXXXXXXXXXXXXXXXXXXXXX....            ",
"            ....XXXXXXXXXXXXXXXXXXXXXXXXXXXXXXXX....            ",
"                ................................                ",
"                ................................                ",
"                ................................                ",
"                ................................                ",
"                                                                ",
"                                                                ",
"                                                                ",
"                                                                "
};
