/* XPM */
static char *wall_xpm[] = {
/* columns rows colors chars-per-pixel */
"64 64 6 1 ",
"  c None",
". c #4F3503",
"X c #366936",
"o c #7E5602",
"O c #3F9B3F",
"+ c green",
/* pixels */
"                                                                ",
"                                                                ",
"                                                                ",
"                                                                ",
"                XXXXXXXX++++++++++++++++++++++++                ",
"                XXXXXXXX++++++++++++++++++++++++                ",
"                XXXXXXXX++++++++++++++++++++++++                ",
"                XXXXXXXX++++++++++++++++++++++++                ",
"            XXXXXXXXOOOOOOOOOOOOOOOOOOOOOOOOOOOO++++            ",
"            XXXXXXXXOOOOOOOOOOOOOOOOOOOOOOOOOOOO++++            ",
"            XXXXXXXXOOOOOOOOOOOOOOOOOOOOOOOOOOOO++++            ",
"            XXXXXXXXOOOOOOOOOOOOOOOOOOOOOOOOOOOO++++            ",
"        XXXXXXXXOOOOOOOOOOOO++++++++OOOO++++OOOOOOOO++++        ",
"        XXXXXXXXOOOOOOOOOOOO++++++++OOOO++++OOOOOOOO++++        ",
"        XXXXXXXXOOOOOOOOOOOO++++++++OOOO++++OOOOOOOO++++        ",
"        XXXXXXXXOOOOOOOOOOOO++++++++OOOO++++OOOOOOOO++++        ",
"        XXXXXXXXOOOOOOOOOOOOOOOOOOOOOOOOOOOOOOOOOOOO++++        ",
"        XXXXXXXXOOOOOOOOOOOOOOOOOOOOOOOOOOOOOOOOOOOO++++        ",
"        XXXXXXXXOOOOOOOOOOOOOOOOOOOOOOOOOOOOOOOOOOOO++++        ",
"        XXXXXXXXOOOOOOOOOOOOOOOOOOOOOOOOOOOOOOOOOOOO++++        ",
"        XXXXXXXXOOOOOOOOOOOOOOOOOOOOOOOO++++OOOOOOOO++++        ",
"        XXXXXXXXOOOOOOOOOOOOOOOOOOOOOOOO++++OOOOOOOO++++        ",
"        XXXXXXXXOOOOOOOOOOOOOOOOOOOOOOOO++++OOOOOOOO++++        ",
"        XXXXXXXXOOOOOOOOOOOOOOOOOOOOOOOO++++OOOOOOOO++++        ",
"        XXXXXXXXOOOOOOOOOOOOOOOOOOOOOOOOOOOO++++OOOOOOOO        ",
"        XXXXXXXXOOOOOOOOOOOOOOOOOOOOOOOOOOOO++++OOOOOOOO        ",
"        XXXXXXXXOOOOOOOOOOOOOOOOOOOOOOOOOOOO++++OOOOOOOO        ",
"        XXXXXXXXOOOOOOOOOOOOOOOOOOOOOOOOOOOO++++OOOOOOOO        ",
"        XXXXXXXXXXXXOOOOOOOOOOOOOOOOOOOOOOOOOOOOOOOO            ",
"        XXXXXXXXXXXXOOOOOOOOOOOOOOOOOOOOOOOOOOOOOOOO            ",
"        XXXXXXXXXXXXOOOOOOOOOOOOOOOOOOOOOOOOOOOOOOOO            ",
"        XXXXXXXXXXXXOOOOOOOOOOOOOOOOOOOOOOOOOOOOOOOO            ",
"            XXXXXXXXOOOOooooOOOOOOOOOOOOOOOOOOOOOOOO            ",
"            XXXXXXXXOOOOooooOOOOOOOOOOOOOOOOOOOOOOOO            ",
"            XXXXXXXXOOOOooooOOOOOOOOOOOOOOOOOOOOOOOO            ",
"            XXXXXXXXOOOOooooOOOOOOOOOOOOOOOOOOOOOOOO            ",
"                XXXXXXXX....ooooOOOOOOOOOOOO                    ",
"                XXXXXXXX....ooooOOOOOOOOOOOO                    ",
"                XXXXXXXX....ooooOOOOOOOOOOOO                    ",
"                XXXXXXXX....ooooOOOOOOOOOOOO                    ",
"                        ....ooooooooOOOO                        ",
"                        ....ooooooooOOOO                        ",
"                        ....ooooooooOOOO                        ",
"                        ....ooooooooOOOO                        ",
"                        ....oooooooooooo                        ",
"                        ....oooooooooooo                        ",
"                        ....oooooooooooo                        ",
"                        ....oooooooooooo                        ",
"                        ....oooooooooooo                        ",
"                        ....oooooooooooo                        ",
"                        ....oooooooooooo                        ",
"                        ....oooooooooooo                        ",
"                        ....oooooooooooo                        ",
"                        ....oooooooooooo                        ",
"                        ....oooooooooooo                        ",
"                        ....oooooooooooo                        ",
"                        ....oooooooooooo                        ",
"                        ....oooooooooooo                        ",
"                        ....oooooooooooo                        ",
"                        ....oooooooooooo                        ",
"                                                                ",
"                                                                ",
"                                                                ",
"                                                                "
};
